<svg width="425" height="425" viewBox="0 0 425 425" fill="none" xmlns="http://www.w3.org/2000/svg">
<path d="M240.986 81.5141H202.625V129.942H240.986V81.5141Z" fill="#FFE5C6"/>
<path d="M224.71 128.856H219.389V130.148H224.71V128.856Z" fill="#FFEBD2"/>
<path d="M223.035 98.186L215.968 99.2204L213.33 105.856L217.759 111.459L224.825 110.425L227.462 103.788L223.035 98.186Z" fill="#FFEBD2"/>
<path d="M226.337 102.477L219.27 103.51L216.633 110.147L221.061 115.749L228.128 114.715L230.766 108.079L226.337 102.477Z" fill="#FFEDD6"/>
<path d="M225.46 80.8562H220.139V81.9621H225.46V80.8562Z" fill="#FFEBD2"/>
<path d="M289.522 101.129H263.465V156.906H289.522V101.129Z" fill="#FFEDD6"/>
<path d="M322.622 160.803H290.604V214.696H322.622V160.803Z" fill="#FFEDD6"/>
<path d="M326.52 100.164H356.923V50.6846H358.004V100.164H386.144V49.5873H326.52V100.164Z" fill="#FFEDD6"/>
<path d="M289.522 160.803H263.465V214.696H289.522V160.803Z" fill="#FFEDD6"/>
<path d="M386.143 160.803H358.004V214.696H386.143V160.803Z" fill="#FFEDD6"/>
<path d="M322.622 101.129H290.604V156.906H322.622V101.129Z" fill="#FFEDD6"/>
<path d="M386.143 101.129H358.004V156.906H386.143V101.129Z" fill="#FFEDD6"/>
<path d="M289.522 215.659H263.465V264.222H289.522V215.659Z" fill="#FFEDD6"/>
<path d="M289.522 100.164V50.6846H290.604V100.164H322.622V49.5873H263.465V100.164H289.522Z" fill="#FFEDD6"/>
<path d="M322.622 215.659H290.604V264.222H322.622V215.659Z" fill="#FFEDD6"/>
<path d="M386.143 215.659H358.004V264.222H386.143V215.659Z" fill="#FFEDD6"/>
<path d="M356.923 101.129H326.52V156.906H356.923V101.129Z" fill="#FFEDD6"/>
<path d="M356.923 215.659H326.52V264.222H356.923V215.659Z" fill="#FFEDD6"/>
<path d="M356.923 160.803H326.52V214.696H356.923V160.803Z" fill="#FFEDD6"/>
<path d="M87.9396 101.129H61.8828V156.906H87.9396V101.129Z" fill="#FFEDD6"/>
<path d="M121.041 160.803H89.0234V214.696H121.041V160.803Z" fill="#FFEDD6"/>
<path d="M124.938 100.164H155.341V50.6846H156.423V100.164H184.562V49.5873H124.938V100.164Z" fill="#FFEDD6"/>
<path d="M87.9396 160.803H61.8828V214.696H87.9396V160.803Z" fill="#FFEDD6"/>
<path d="M184.56 160.803H156.422V214.696H184.56V160.803Z" fill="#FFEDD6"/>
<path d="M121.041 101.129H89.0234V156.906H121.041V101.129Z" fill="#FFEDD6"/>
<path d="M184.56 101.129H156.422V156.906H184.56V101.129Z" fill="#FFEDD6"/>
<path d="M87.9396 215.659H61.8828V264.222H87.9396V215.659Z" fill="#FFEDD6"/>
<path d="M87.9404 100.164V50.6846H89.0225V100.164H121.04V49.5873H61.8828V100.164H87.9404Z" fill="#FFEDD6"/>
<path d="M121.041 215.659H89.0234V264.222H121.041V215.659Z" fill="#FFEDD6"/>
<path d="M184.56 215.659H156.422V264.222H184.56V215.659Z" fill="#FFEDD6"/>
<path d="M155.341 101.129H124.938V156.906H155.341V101.129Z" fill="#FFEDD6"/>
<path d="M155.341 215.659H124.938V264.222H155.341V215.659Z" fill="#FFEDD6"/>
<path d="M155.341 160.803H124.938V214.696H155.341V160.803Z" fill="#FFEDD6"/>
<path d="M324.934 350.217V375.198H361.465H401.757V350.217H324.934Z" fill="#FFE5C6"/>
<path d="M321.711 343.233V350.217H404.443V343.233H361.465H321.711Z" fill="#FFEBD2"/>
<path d="M363.076 375.198H401.757V350.217H404.443V343.233H361.465V349.57L363.076 375.198Z" fill="#FFEBD2"/>
<path d="M351.257 354.245H335.678V358.006H351.257V354.245Z" fill="#FFEBD2"/>
<path d="M353.679 362.707H333.674V370.648H353.679V362.707Z" fill="#FFEDD6"/>
<path d="M343.912 315.651L343.801 306.26L376.707 309.08L377.734 318.37L343.912 315.651Z" fill="#FFE5C6"/>
<path d="M351.015 310.504L350.871 312.192L371.455 313.952L371.599 312.264L351.015 310.504Z" fill="#FFEBD2"/>
<path d="M339.988 306.734L339.977 297.343L372.85 300.512L373.688 308.903L339.988 306.734Z" fill="#FFEBD2"/>
<path d="M339.979 298.62L339.963 304.957L371.999 307.321L371.464 301.473L339.979 298.62Z" fill="white"/>
<path d="M369.564 303.908C369.56 303.939 369.147 303.926 368.403 303.878C367.573 303.812 366.516 303.73 365.252 303.63C362.595 303.402 358.928 303.056 354.879 302.648C350.83 302.239 347.166 301.843 344.516 301.536C343.258 301.38 342.206 301.25 341.379 301.148C340.64 301.047 340.232 300.976 340.234 300.946C340.237 300.915 340.649 300.928 341.394 300.976C342.223 301.042 343.28 301.124 344.542 301.224C347.199 301.452 350.869 301.798 354.92 302.207C358.969 302.616 362.634 303.011 365.284 303.32C366.542 303.475 367.593 303.606 368.42 303.708C369.16 303.807 369.567 303.878 369.564 303.908Z" fill="#FFEDD6"/>
<path d="M369.497 304.703C369.494 304.734 369.078 304.734 368.326 304.708C367.49 304.668 366.423 304.618 365.147 304.558C362.464 304.411 358.76 304.178 354.67 303.894C350.58 303.609 346.879 303.327 344.202 303.101C342.93 302.984 341.868 302.886 341.034 302.81C340.287 302.732 339.874 302.674 339.877 302.643C339.88 302.613 340.296 302.613 341.047 302.638C341.884 302.678 342.951 302.728 344.226 302.789C346.91 302.935 350.614 303.168 354.704 303.453C358.793 303.737 362.494 304.02 365.17 304.246C366.442 304.362 367.505 304.46 368.339 304.536C369.087 304.615 369.499 304.672 369.497 304.703Z" fill="#FFEDD6"/>
<path d="M344.29 324.309L344.168 314.917L377.077 317.707L378.012 326.09L344.29 324.309Z" fill="#FFEBD2"/>
<path d="M347.916 324.505C347.793 324.506 347.613 322.435 347.513 319.879C347.414 317.322 347.432 315.243 347.554 315.235C347.676 315.228 347.856 317.298 347.956 319.862C348.056 322.424 348.038 324.503 347.916 324.505Z" fill="#FFEDD6"/>
<path d="M349.154 315.34C349.276 315.337 349.42 317.404 349.475 319.954C349.531 322.506 349.476 324.577 349.355 324.579C349.232 324.582 349.089 322.516 349.033 319.965C348.978 317.413 349.032 315.342 349.154 315.34Z" fill="#FFEDD6"/>
<path d="M352.146 319.475C357.881 320.107 364.627 320.47 370.459 320.99L352.146 319.475Z" fill="white"/>
<path d="M370.46 320.99C370.454 321.052 369.425 321.014 367.765 320.922C366.105 320.829 363.814 320.687 361.283 320.498C358.752 320.31 356.463 320.098 354.81 319.902C353.156 319.707 352.141 319.535 352.147 319.476C352.153 319.414 353.181 319.476 354.838 319.591C356.629 319.72 358.854 319.881 361.315 320.057C363.845 320.245 366.134 320.437 367.789 320.61C369.446 320.781 370.466 320.93 370.46 320.99Z" fill="#FFEDD6"/>
<path d="M372.865 325.818C372.743 325.824 372.552 323.946 372.438 321.626C372.324 319.303 372.332 317.417 372.454 317.411C372.575 317.405 372.766 319.282 372.88 321.604C372.993 323.925 372.987 325.812 372.865 325.818Z" fill="#FFEDD6"/>
<path d="M374.892 325.924C374.771 325.936 374.486 324.061 374.257 321.736C374.028 319.411 373.941 317.516 374.063 317.504C374.184 317.492 374.468 319.367 374.698 321.693C374.927 324.018 375.014 325.912 374.892 325.924Z" fill="#FFEDD6"/>
<path d="M357.031 321.578C360.658 321.826 363.421 322.007 366.31 322.074L357.031 321.578Z" fill="white"/>
<path d="M366.31 322.074C366.307 322.196 364.226 322.184 361.66 322.047C359.094 321.91 357.022 321.7 357.031 321.578C357.04 321.456 359.121 321.468 361.681 321.604C364.24 321.741 366.312 321.951 366.31 322.074Z" fill="#FFEDD6"/>
<path d="M346.498 342.649L345.879 333.277L378.89 334.32L380.267 342.642L346.498 342.649Z" fill="#FFE5C6"/>
<path d="M347.804 341.471L379.928 341.012L379.033 335.178L347.199 334.59L347.804 341.471Z" fill="white"/>
<path d="M347.395 333.462L347.092 324.075L380.049 326.225L381.145 334.588L347.395 333.462Z" fill="#FFEDD6"/>
<path d="M354.376 328.173L354.266 329.864L374.881 331.204L374.991 329.514L354.376 328.173Z" fill="#FFEBD2"/>
<path d="M379.362 337.579C379.361 337.61 378.912 337.64 378.101 337.67C377.207 337.692 376.052 337.72 374.663 337.754C371.761 337.805 367.754 337.846 363.327 337.863C358.898 337.88 354.89 337.872 351.988 337.843C350.6 337.82 349.444 337.8 348.55 337.786C347.739 337.763 347.289 337.735 347.289 337.704C347.288 337.674 347.736 337.643 348.548 337.613C349.441 337.591 350.596 337.563 351.984 337.529C354.886 337.478 358.896 337.437 363.326 337.42C367.755 337.403 371.765 337.412 374.667 337.441C376.055 337.464 377.21 337.483 378.103 337.498C378.913 337.521 379.362 337.549 379.362 337.579Z" fill="#FFE5C6"/>
<path d="M379.74 339.399C379.739 339.43 379.286 339.453 378.468 339.468C377.569 339.474 376.405 339.481 375.006 339.491C372.083 339.491 368.047 339.459 363.589 339.398C359.13 339.337 355.093 339.256 352.172 339.175C350.774 339.128 349.611 339.088 348.712 339.057C347.896 339.02 347.443 338.984 347.443 338.954C347.443 338.923 347.895 338.9 348.712 338.885C349.611 338.879 350.775 338.871 352.174 338.862C355.097 338.862 359.134 338.893 363.595 338.954C368.054 339.016 372.092 339.096 375.013 339.177C376.411 339.225 377.574 339.265 378.473 339.295C379.289 339.334 379.741 339.368 379.74 339.399Z" fill="#FFE5C6"/>
<path d="M57.7712 269.659C53.273 270.382 51.2619 275.91 51.6555 280.449C52.049 284.988 53.9148 289.425 53.4158 293.953C52.7817 299.704 48.4365 304.564 47.9299 310.328C47.3332 317.126 52.1383 323.154 53.5739 329.825C54.2726 333.07 54.1749 336.502 55.3827 339.594C57.4202 344.808 63.3957 348.155 68.9062 347.171C74.4168 346.187 78.8631 340.977 78.9702 335.381C79.0697 330.162 75.849 325.247 76.2409 320.041C76.5299 316.193 78.7849 312.548 78.3021 308.72C77.7275 304.166 73.5073 300.931 72.0172 296.588C70.528 292.244 71.9586 287.458 71.4443 282.894C70.5221 274.709 65.9839 269.002 57.7712 269.659Z" fill="#956B69"/>
<path d="M34.803 309.296C34.038 316.882 37.3921 325.806 41.2927 332.355C45.1934 338.905 51.2403 344.153 58.274 347.094C59.0671 347.426 60.0548 347.704 60.722 347.163C61.2686 346.718 61.3374 345.922 61.3417 345.217C61.3952 337.235 58.7976 329.258 54.0546 322.838C49.3099 316.416 42.4479 311.59 34.803 309.296Z" fill="#956B69"/>
<g opacity="0.1">
<path d="M34.803 309.296C34.038 316.882 37.3921 325.806 41.2927 332.355C45.1934 338.905 51.2403 344.153 58.274 347.094C59.0671 347.426 60.0548 347.704 60.722 347.163C61.2686 346.718 61.3374 345.922 61.3417 345.217C61.3952 337.235 58.7976 329.258 54.0546 322.838C49.3099 316.416 42.4479 311.59 34.803 309.296Z" fill="#533B33"/>
</g>
<path d="M67.8449 362.953C67.8313 362.958 67.7574 362.813 67.629 362.531C67.4862 362.204 67.3069 361.792 67.0876 361.288C66.632 360.205 65.9503 358.646 65.0824 356.731C63.3501 352.902 60.7831 347.689 57.5514 342.151C54.3121 336.616 51.0285 331.82 48.5431 328.432C47.3013 326.737 46.2779 325.377 45.5562 324.448C45.2247 324.01 44.9553 323.653 44.7394 323.367C44.5566 323.116 44.4657 322.981 44.4776 322.972C44.4895 322.963 44.6025 323.08 44.8074 323.313C45.0394 323.585 45.3301 323.926 45.688 324.344C46.4496 325.241 47.5121 326.574 48.7871 328.25C51.3405 331.598 54.6734 336.382 57.9238 341.934C61.1648 347.488 63.6969 352.738 65.3612 356.606C66.1951 358.54 66.8351 360.12 67.2431 361.225C67.4327 361.741 67.5865 362.162 67.7098 362.498C67.8118 362.793 67.8594 362.948 67.8449 362.953Z" fill="#533B33"/>
<path d="M62.9615 290.644C62.9768 290.643 63.0048 290.894 63.0439 291.372C63.0813 291.887 63.1324 292.583 63.1953 293.461C63.3143 295.316 63.4826 297.932 63.69 301.147C64.0997 307.636 64.6751 316.602 65.3712 326.499C66.0691 336.4 66.755 345.358 67.2583 351.841C67.5039 355.054 67.7037 357.666 67.8456 359.521C67.9051 360.398 67.9527 361.095 67.9876 361.61C68.0156 362.088 68.0233 362.341 68.008 362.341C67.9935 362.342 67.957 362.093 67.9009 361.618C67.8456 361.105 67.7717 360.409 67.6782 359.536C67.5031 357.683 67.2574 355.075 66.9539 351.867C66.3725 345.388 65.6382 336.433 64.9412 326.53C64.245 316.63 63.7172 307.66 63.3857 301.164C63.2361 297.946 63.1145 295.327 63.0278 293.47C62.9981 292.591 62.9743 291.893 62.9564 291.377C62.9454 290.897 62.947 290.645 62.9615 290.644Z" fill="#533B33"/>
<path d="M55.9844 352.136H74.9802V366.082C74.9802 371.119 70.8976 375.201 65.8614 375.201C61.0147 375.201 57.0146 371.41 56.7553 366.569L55.9844 352.136Z" fill="#E89636"/>
<path d="M303.383 237.397C302.237 236.429 300.673 236.305 299.707 236.339C299.712 235.631 299.681 235.194 299.681 235.194H279.631C279.631 235.194 279.001 248.432 289.137 248.9C293.674 249.109 296.27 247.076 297.756 244.518C298.241 244.633 299.083 244.794 300.031 244.794C301.086 244.794 302.264 244.593 303.188 243.901C303.876 243.388 304.696 242.383 304.696 240.51C304.696 238.854 303.982 237.904 303.383 237.397ZM302.01 242.316C301.154 242.958 299.62 242.859 298.621 242.679C299.187 241.169 299.466 239.622 299.597 238.325C300.283 238.283 301.438 238.34 302.108 238.907C302.52 239.255 302.72 239.779 302.72 240.51C302.72 241.368 302.487 241.958 302.01 242.316Z" fill="#956B69"/>
<path d="M293.824 233.987C293.797 233.974 293.978 233.837 293.986 233.484C293.988 233.144 293.73 232.618 293.158 232.279C292.873 232.12 292.499 232.025 292.095 231.914C291.694 231.798 291.221 231.68 290.811 231.339C290.402 231.005 290.145 230.436 290.152 229.847C290.148 229.258 290.329 228.65 290.661 228.098C291.348 226.982 292.59 226.279 293.46 225.178C294.308 224.074 294.617 222.453 294.184 220.937C293.983 220.176 293.57 219.459 293.004 218.876C292.429 218.299 291.654 217.915 290.861 217.518C290.076 217.106 289.206 216.706 288.594 215.896C288.305 215.499 288.094 215.042 288.001 214.548C287.903 214.06 287.931 213.512 288.192 213.032C288.327 212.784 288.537 212.588 288.745 212.441L288.973 212.82C287.428 213.681 286.767 215.613 287.044 217.223C287.18 218.042 287.563 218.782 288.143 219.331C288.716 219.893 289.446 220.358 289.882 221.12C290.093 221.498 290.2 221.937 290.177 222.36C290.153 222.784 290.018 223.182 289.831 223.533C289.45 224.236 288.889 224.775 288.286 225.186C287.053 225.966 285.784 226.358 284.848 227.072C283.887 227.754 283.42 228.777 283.343 229.7C283.248 230.623 283.455 231.435 283.738 232.021C284.331 233.216 285.092 233.533 285.04 233.581C285.036 233.588 284.994 233.567 284.915 233.522C284.839 233.472 284.713 233.416 284.577 233.3C284.29 233.088 283.91 232.701 283.586 232.098C283.268 231.498 283.024 230.658 283.1 229.678C283.14 229.191 283.257 228.667 283.515 228.166C283.767 227.661 284.174 227.203 284.661 226.826C285.638 226.059 286.933 225.637 288.082 224.886C288.64 224.498 289.157 223.984 289.49 223.354C289.833 222.731 289.907 221.954 289.53 221.319C289.165 220.676 288.472 220.225 287.852 219.633C287.21 219.035 286.768 218.193 286.619 217.296C286.314 215.529 287.011 213.421 288.759 212.432L288.987 212.811C288.832 212.925 288.678 213.064 288.578 213.248C288.192 213.976 288.457 214.963 288.949 215.635C289.45 216.315 290.283 216.729 291.056 217.13C291.843 217.529 292.663 217.931 293.303 218.577C293.925 219.222 294.366 220.007 294.578 220.828C295.032 222.465 294.689 224.207 293.75 225.404C292.794 226.57 291.564 227.248 290.928 228.262C290.294 229.244 290.236 230.548 290.972 231.152C291.695 231.738 292.635 231.74 293.247 232.132C293.858 232.527 294.105 233.107 294.075 233.488C294.063 233.682 293.981 233.811 293.929 233.89C293.864 233.96 293.83 233.992 293.824 233.987Z" fill="#533B33"/>
<path d="M168.782 158.008H70.9701C69.4537 158.008 68.2246 156.779 68.2246 155.263V131.791C68.2246 130.274 69.4537 129.045 70.9701 129.045H168.782C170.299 129.045 171.528 130.274 171.528 131.791V155.263C171.528 156.778 170.299 158.008 168.782 158.008Z" fill="#E89636"/>
<path d="M89.9985 148.356C87.8234 151.069 83.8624 151.504 81.15 149.33C78.4377 147.155 78.0025 143.194 80.1768 140.481C82.3519 137.769 86.3129 137.334 89.0253 139.508C91.7376 141.683 92.1728 145.644 89.9985 148.356Z" fill="white"/>
<path d="M88.6266 142.282C88.7116 142.369 87.1893 143.993 85.2266 145.907C84.941 146.183 84.6639 146.45 84.3953 146.709L84.2406 146.859L84.0927 146.707C82.5619 145.143 81.4773 143.935 81.5504 143.861C81.6243 143.787 82.833 144.872 84.397 146.403L84.0944 146.401C84.3605 146.14 84.6342 145.869 84.9172 145.591C86.8799 143.676 88.5416 142.194 88.6266 142.282Z" fill="#956B69"/>
<path d="M161.446 141.403C161.446 141.526 148.314 141.624 132.119 141.624C115.918 141.624 102.789 141.525 102.789 141.403C102.789 141.281 115.918 141.182 132.119 141.182C148.314 141.182 161.446 141.282 161.446 141.403Z" fill="white"/>
<path d="M137.386 147.132C137.386 147.254 129.794 147.353 120.431 147.353C111.065 147.353 103.475 147.253 103.475 147.132C103.475 147.009 111.065 146.911 120.431 146.911C129.795 146.911 137.386 147.01 137.386 147.132Z" fill="white"/>
<path d="M168.782 191.138H70.9701C69.4537 191.138 68.2246 189.909 68.2246 188.392V164.92C68.2246 163.404 69.4537 162.175 70.9701 162.175H168.782C170.299 162.175 171.528 163.404 171.528 164.92V188.392C171.528 189.908 170.299 191.138 168.782 191.138Z" fill="#E89636"/>
<path d="M89.9985 181.486C87.8234 184.198 83.8624 184.634 81.15 182.459C78.4377 180.284 78.0025 176.323 80.1768 173.611C82.3519 170.898 86.3129 170.463 89.0253 172.638C91.7376 174.813 92.1728 178.774 89.9985 181.486Z" fill="white"/>
<path d="M88.6266 175.412C88.7116 175.499 87.1893 177.123 85.2266 179.037C84.941 179.313 84.6639 179.58 84.3953 179.84L84.2406 179.989L84.0927 179.838C82.5619 178.275 81.4773 177.065 81.5504 176.991C81.6243 176.917 82.833 178.003 84.397 179.534L84.0944 179.532C84.3605 179.269 84.6342 179 84.9172 178.721C86.8799 176.805 88.5416 175.324 88.6266 175.412Z" fill="#956B69"/>
<path d="M161.446 174.534C161.446 174.656 148.314 174.755 132.119 174.755C115.918 174.755 102.789 174.655 102.789 174.534C102.789 174.411 115.918 174.313 132.119 174.313C148.314 174.312 161.446 174.411 161.446 174.534Z" fill="white"/>
<path d="M137.386 180.262C137.386 180.384 129.794 180.483 120.431 180.483C111.065 180.483 103.475 180.384 103.475 180.262C103.475 180.14 111.065 180.041 120.431 180.041C129.795 180.04 137.386 180.14 137.386 180.262Z" fill="white"/>
<path d="M168.782 224.267H70.9701C69.4537 224.267 68.2246 223.038 68.2246 221.522V198.05C68.2246 196.534 69.4537 195.305 70.9701 195.305H168.782C170.299 195.305 171.528 196.534 171.528 198.05V221.522C171.528 223.038 170.299 224.267 168.782 224.267Z" fill="#E89636"/>
<path d="M89.9985 214.616C87.8234 217.328 83.8624 217.763 81.15 215.589C78.4377 213.414 78.0025 209.453 80.1768 206.74C82.3519 204.028 86.3129 203.593 89.0253 205.767C91.7376 207.942 92.1728 211.904 89.9985 214.616Z" fill="white"/>
<path d="M88.6266 208.542C88.7116 208.629 87.1893 210.253 85.2266 212.167C84.941 212.443 84.6639 212.71 84.3953 212.969L84.2406 213.119L84.0927 212.967C82.5619 211.403 81.4773 210.195 81.5504 210.121C81.6243 210.047 82.833 211.132 84.397 212.663L84.0944 212.661C84.3605 212.4 84.6342 212.129 84.9172 211.851C86.8799 209.935 88.5416 208.454 88.6266 208.542Z" fill="#956B69"/>
<path d="M161.446 207.664C161.446 207.786 148.314 207.885 132.119 207.885C115.918 207.885 102.789 207.785 102.789 207.664C102.789 207.542 115.918 207.443 132.119 207.443C148.314 207.442 161.446 207.541 161.446 207.664Z" fill="white"/>
<path d="M137.386 213.392C137.386 213.514 129.794 213.613 120.431 213.613C111.065 213.613 103.475 213.513 103.475 213.392C103.475 213.269 111.065 213.171 120.431 213.171C129.795 213.17 137.386 213.269 137.386 213.392Z" fill="white"/>
<path d="M230.074 304.963L228.449 375.202H225.35L225.547 305.139L230.074 304.963Z" fill="#533B33"/>
<path d="M241.262 304.183L256.325 375.202H259.776L247.238 304.183H241.262Z" fill="#533B33"/>
<path d="M213.027 304.963L196.359 375.202H192.908L208.032 304.676L213.027 304.963Z" fill="#533B33"/>
<path d="M260.819 227.747C260.819 227.747 279.915 226.657 278.006 248.754C276.096 270.851 275.005 293.22 267.912 300.859C260.819 308.498 189.345 308.77 183.343 302.495C177.342 296.222 194.801 296.494 198.076 296.494C201.349 296.494 221.536 298.403 228.084 281.217C234.631 264.03 232.994 226.657 260.819 227.747Z" fill="#533B33"/>
<path d="M262.044 227.759C262.044 227.759 276.642 230.749 275.277 246.026C273.913 261.303 270.094 288.037 263.001 294.856C255.908 301.678 228.115 303.163 213.078 302.223C195.619 301.131 184.598 297.807 184.598 297.807C184.598 297.807 181.411 299.855 182.378 301.176C183.343 302.495 191.854 307.804 233.122 306.92C274.389 306.035 271.519 299.946 273.233 293.296C274.946 286.644 278.54 251.185 278.041 243.389C277.544 235.593 273.616 229.127 262.044 227.759Z" fill="#E89636"/>
<path d="M221.04 162.968C225.582 161.278 231.177 163.132 233.812 167.198C235.658 170.047 236.084 173.642 237.968 176.465C239.302 178.464 241.276 179.937 242.903 181.707C244.531 183.477 245.871 185.809 245.461 188.177C245.075 190.403 243.193 192.369 243.571 194.596C243.926 196.682 246.152 198.042 246.583 200.115C247.09 202.555 244.738 204.836 242.276 205.219C239.813 205.601 237.361 204.649 235.045 203.73C232.729 202.81 230.257 201.888 227.804 202.333C224.951 202.851 222.772 205.085 220.276 206.562C215.103 209.622 208.088 209.204 203.315 205.551C201.438 204.116 199.806 201.883 200.26 199.564C200.683 197.404 202.766 195.908 203.373 193.792C204.276 190.646 201.658 187.431 202.054 184.181C202.586 179.808 207.974 177.81 209.941 173.868C210.884 171.975 210.968 169.759 211.799 167.816C212.631 165.872 214.792 164.138 216.737 164.965" fill="#533B33"/>
<path d="M219.204 202.733C219.49 201.181 218.988 194.635 218.988 194.635C218.988 194.635 213.185 193.903 212.935 187.98C212.685 182.056 213.274 168.418 213.274 168.418L223.954 163.289L233.275 173.915L233.451 202.637L219.204 202.733Z" fill="#FFBE9D"/>
<path d="M214.033 178.873C214.027 179.291 214.351 179.636 214.758 179.643C215.166 179.65 215.502 179.318 215.509 178.899C215.516 178.481 215.191 178.136 214.785 178.129C214.377 178.121 214.04 178.454 214.033 178.873Z" fill="#533B33"/>
<path d="M213.559 177.547C213.653 177.647 214.205 177.181 215.001 177.151C215.795 177.109 216.385 177.523 216.47 177.416C216.512 177.369 216.416 177.186 216.159 176.998C215.905 176.811 215.476 176.636 214.98 176.658C214.485 176.681 214.071 176.893 213.835 177.103C213.593 177.313 213.513 177.503 213.559 177.547Z" fill="#533B33"/>
<path d="M222.678 178.873C222.671 179.291 222.996 179.636 223.403 179.643C223.81 179.65 224.147 179.318 224.153 178.899C224.161 178.481 223.836 178.136 223.429 178.129C223.022 178.121 222.685 178.454 222.678 178.873Z" fill="#533B33"/>
<path d="M222.364 177.7C222.457 177.8 223.011 177.334 223.805 177.304C224.599 177.262 225.19 177.676 225.275 177.568C225.317 177.521 225.222 177.338 224.963 177.15C224.71 176.963 224.281 176.788 223.785 176.81C223.289 176.833 222.876 177.045 222.639 177.255C222.399 177.466 222.318 177.656 222.364 177.7Z" fill="#533B33"/>
<path d="M219.379 184.537C219.382 184.488 218.886 184.417 218.084 184.34C217.881 184.325 217.688 184.289 217.651 184.142C217.601 183.987 217.683 183.75 217.777 183.492C217.96 182.958 218.151 182.399 218.352 181.812C219.149 179.421 219.722 177.458 219.632 177.426C219.543 177.395 218.824 179.308 218.027 181.699C217.836 182.288 217.652 182.85 217.478 183.388C217.405 183.637 217.277 183.923 217.386 184.245C217.443 184.406 217.594 184.517 217.725 184.549C217.856 184.587 217.97 184.584 218.071 184.587C218.876 184.601 219.377 184.585 219.379 184.537Z" fill="#533B33"/>
<path d="M218.988 194.636C218.988 194.636 222.869 194.747 226.672 192.12C226.672 192.12 224.866 196.435 219.089 196.089L218.988 194.636Z" fill="#EB996E"/>
<path d="M219.665 186.625C219.756 186.125 220.115 185.681 220.586 185.489C220.912 185.355 221.299 185.343 221.611 185.507C221.923 185.672 222.137 186.031 222.084 186.38C222.023 186.772 221.651 187.059 221.263 187.142C220.874 187.225 220.471 187.147 220.083 187.062C219.976 187.038 219.865 187.013 219.775 186.949C219.686 186.885 219.621 186.773 219.646 186.666" fill="#EB996E"/>
<path d="M221.635 184.505C221.69 184.498 221.786 184.723 221.757 185.109C221.731 185.487 221.545 186.028 221.103 186.446C220.66 186.862 220.109 187.017 219.73 187.02C219.343 187.027 219.125 186.918 219.135 186.864C219.138 186.742 220.065 186.817 220.799 186.124C221.535 185.431 221.513 184.5 221.635 184.505Z" fill="#533B33"/>
<path d="M212.785 167.759C213.101 171.194 216.373 174.09 219.822 173.986C219.285 172.806 218.748 171.627 218.211 170.448C219.641 172.111 221.123 173.815 223.079 174.806C225.035 175.796 227.606 175.907 229.274 174.484C229.818 175.933 229.807 177.539 230.305 179.005C230.802 180.47 231.973 186.513 233.504 186.283C234.909 186.071 235.906 179.977 236.265 178.603C237.256 174.803 236.014 170.617 233.489 167.612C230.491 164.044 225.727 162.052 221.079 162.381C219.017 162.527 216.94 163.129 215.317 164.41C213.892 165.535 212.873 167.164 212.484 168.938" fill="#533B33"/>
<path d="M204.831 194.444C204.827 194.459 204.689 194.427 204.429 194.352C204.171 194.277 203.79 194.143 203.337 193.895C202.426 193.43 201.183 192.478 200.244 190.863C199.295 189.29 198.794 186.881 199.697 184.537C200.136 183.381 200.863 182.263 201.866 181.359C202.847 180.439 204.161 179.784 205.542 179.497C206.21 179.341 206.852 179.147 207.258 178.684C207.671 178.23 207.862 177.6 207.909 176.981C208.011 175.728 207.52 174.518 207.381 173.289C207.209 172.046 207.519 170.826 208.076 169.873C208.625 168.903 209.458 168.214 210.276 167.782C211.097 167.346 211.877 167.065 212.539 166.78C213.204 166.502 213.753 166.218 214.163 165.93C214.992 165.35 215.236 164.808 215.278 164.84C215.291 164.848 215.227 164.973 215.089 165.209C214.928 165.426 214.683 165.757 214.266 166.069C213.857 166.389 213.302 166.705 212.64 167.006C211.98 167.315 211.211 167.617 210.429 168.055C209.651 168.49 208.898 169.139 208.395 170.055C207.889 170.957 207.617 172.082 207.787 173.238C207.919 174.4 208.438 175.616 208.342 177.013C208.292 177.692 208.088 178.419 207.583 178.979C207.073 179.557 206.313 179.769 205.646 179.926C202.942 180.448 200.907 182.496 200.079 184.68C199.204 186.891 199.638 189.17 200.517 190.709C201.386 192.283 202.556 193.245 203.422 193.745C204.292 194.256 204.847 194.4 204.831 194.444Z" fill="#533B33"/>
<path d="M243.327 202.233C243.307 202.201 243.829 201.896 244.709 201.263C245.549 200.623 246.887 199.635 247.618 197.868C247.952 196.994 248.095 195.911 247.782 194.857C247.629 194.334 247.353 193.828 246.938 193.431C246.536 193.022 245.98 192.749 245.419 192.415C244.239 191.801 243.304 190.467 243.264 188.975C243.201 187.437 244.16 186.159 244.499 184.792C244.847 183.404 244.497 181.956 243.855 180.764C243.218 179.55 242.301 178.566 241.333 177.745C239.383 176.111 237.355 174.916 235.954 173.521C234.533 172.151 233.74 170.7 233.455 169.635C233.298 169.105 233.27 168.673 233.25 168.387C233.252 168.097 233.259 167.946 233.275 167.946C233.324 167.942 233.282 168.56 233.62 169.584C233.948 170.604 234.755 171.984 236.171 173.294C237.565 174.629 239.588 175.781 241.598 177.433C242.593 178.264 243.564 179.286 244.238 180.559C244.919 181.808 245.311 183.371 244.929 184.898C244.538 186.389 243.63 187.615 243.698 188.96C243.739 190.298 244.533 191.478 245.631 192.065C246.167 192.393 246.757 192.686 247.213 193.154C247.677 193.608 247.977 194.18 248.136 194.755C248.462 195.915 248.284 197.061 247.912 197.985C247.522 198.915 246.938 199.619 246.377 200.165C245.812 200.709 245.266 201.105 244.809 201.406C244.351 201.706 243.982 201.915 243.729 202.05C243.472 202.184 243.334 202.246 243.327 202.233Z" fill="#533B33"/>
<path d="M212.592 174.845C213.436 174.202 213.963 173.215 214.243 172.191C214.523 171.168 214.576 170.099 214.628 169.039C214.643 168.732 214.598 168.337 214.303 168.255C214.016 168.176 213.776 168.473 213.636 168.735C212.602 170.683 212.228 172.974 212.59 175.149C212.653 175.091 212.716 175.032 212.779 174.974" fill="#533B33"/>
<path d="M197.761 370.989L197.605 363.347L211.919 362.962L212.267 374.14L211.381 374.221C207.437 374.547 191.305 375.599 188.643 374.87C185.674 374.055 197.761 370.989 197.761 370.989Z" fill="#956B69"/>
<g opacity="0.5">
<path d="M207.074 374.167C207.246 372.966 207.881 371.837 208.818 371.067C209.756 370.297 210.925 369.872 212.136 369.936L212.246 373.936L207.074 374.167Z" fill="white"/>
</g>
<g opacity="0.4">
<path d="M191.861 372.699C191.861 372.699 187.631 374.043 188.182 374.731C188.733 375.419 205.075 374.969 212.266 374.14L212.235 373.821L193.177 374.508C193.177 374.508 192.695 372.711 191.861 372.699Z" fill="white"/>
</g>
<path d="M212.46 373.806C212.46 373.812 212.376 373.823 212.214 373.839C212.002 373.858 211.77 373.878 211.509 373.901C210.802 373.952 209.934 374.013 208.91 374.085C206.715 374.224 203.68 374.377 200.325 374.473C196.969 374.567 193.93 374.586 191.731 374.571C190.704 374.557 189.834 374.545 189.126 374.535C188.864 374.526 188.631 374.519 188.418 374.513C188.257 374.506 188.172 374.499 188.172 374.493C188.172 374.487 188.257 374.482 188.418 374.478C188.631 374.474 188.864 374.471 189.126 374.467C189.834 374.462 190.704 374.456 191.73 374.449C193.929 374.433 196.966 374.394 200.32 374.3C203.673 374.205 206.707 374.071 208.903 373.963C209.928 373.912 210.797 373.87 211.504 373.835C211.767 373.824 212 373.815 212.212 373.805C212.374 373.799 212.46 373.8 212.46 373.806Z" fill="#533B33"/>
<path d="M193.188 374.73C193.135 374.739 193.077 374.118 192.668 373.502C192.269 372.878 191.725 372.575 191.753 372.53C191.762 372.487 192.383 372.739 192.813 373.407C193.25 374.069 193.231 374.74 193.188 374.73Z" fill="#533B33"/>
<path d="M197.352 372.471C197.312 372.497 197.104 372.258 196.885 371.934C196.668 371.611 196.523 371.327 196.563 371.3C196.603 371.273 196.811 371.514 197.03 371.837C197.248 372.161 197.392 372.445 197.352 372.471Z" fill="#533B33"/>
<path d="M198.494 371.827C198.463 371.863 198.233 371.719 197.981 371.504C197.728 371.289 197.548 371.085 197.58 371.049C197.611 371.012 197.841 371.157 198.094 371.372C198.345 371.586 198.525 371.79 198.494 371.827Z" fill="#533B33"/>
<path d="M199.189 370.455C199.19 370.503 198.857 370.555 198.444 370.571C198.031 370.587 197.695 370.561 197.693 370.513C197.692 370.466 198.025 370.414 198.437 370.398C198.85 370.382 199.187 370.407 199.189 370.455Z" fill="#533B33"/>
<path d="M199.413 369.496C199.43 369.538 199.071 369.713 198.586 369.761C198.102 369.812 197.714 369.715 197.723 369.67C197.73 369.621 198.109 369.638 198.569 369.589C199.029 369.543 199.396 369.448 199.413 369.496Z" fill="#533B33"/>
<path d="M196.831 371.236C196.833 371.255 196.481 371.308 195.911 371.255C195.627 371.229 195.29 371.171 194.926 371.067C194.745 371.008 194.556 370.965 194.359 370.851C194.266 370.792 194.163 370.71 194.124 370.571C194.082 370.434 194.152 370.278 194.253 370.2C195.12 369.72 196.013 370.19 196.352 370.636C196.538 370.863 196.627 371.086 196.669 371.241C196.71 371.397 196.71 371.487 196.7 371.489C196.668 371.502 196.628 371.129 196.26 370.716C196.078 370.513 195.806 370.32 195.46 370.227C195.133 370.139 194.669 370.127 194.366 370.331C194.223 370.444 194.284 370.614 194.449 370.706C194.603 370.8 194.801 370.854 194.973 370.913C195.324 371.023 195.65 371.092 195.926 371.133C196.48 371.216 196.831 371.208 196.831 371.236Z" fill="#533B33"/>
<path d="M196.595 371.288C196.582 371.298 196.44 371.067 196.471 370.652C196.488 370.448 196.556 370.206 196.704 369.973C196.861 369.764 197.062 369.477 197.457 369.483C197.672 369.504 197.782 369.744 197.752 369.9C197.74 370.062 197.672 370.202 197.607 370.315C197.476 370.549 197.327 370.739 197.188 370.884C196.907 371.174 196.682 371.288 196.672 371.271C196.655 371.249 196.85 371.101 197.096 370.802C197.218 370.654 197.35 370.465 197.466 370.24C197.587 370.042 197.664 369.691 197.432 369.655C197.201 369.639 196.972 369.875 196.837 370.062C196.697 370.265 196.623 370.482 196.593 370.667C196.533 371.044 196.625 371.28 196.595 371.288Z" fill="#533B33"/>
<path d="M212.06 369.897C212.057 369.929 211.648 369.869 211.004 369.963C210.366 370.053 209.481 370.34 208.723 370.977C207.965 371.617 207.533 372.44 207.337 373.055C207.136 373.674 207.125 374.088 207.093 374.084C207.083 374.084 207.074 373.981 207.085 373.795C207.095 373.61 207.131 373.341 207.22 373.019C207.39 372.379 207.822 371.512 208.611 370.845C209.402 370.179 210.329 369.901 210.989 369.841C211.321 369.809 211.592 369.818 211.777 369.839C211.961 369.862 212.061 369.887 212.06 369.897Z" fill="#533B33"/>
<path d="M210.411 363.982C210.459 363.98 210.55 365.295 210.616 366.919C210.681 368.543 210.696 369.861 210.647 369.862C210.6 369.864 210.508 368.55 210.442 366.925C210.378 365.302 210.363 363.984 210.411 363.982Z" fill="#533B33"/>
<path d="M205.235 372.821C205.242 372.866 204.313 373.045 203.151 373.086C201.988 373.131 201.048 373.022 201.053 372.977C201.056 372.926 201.992 372.958 203.145 372.913C204.296 372.872 205.227 372.772 205.235 372.821Z" fill="#533B33"/>
<path d="M208.039 372.739C208.075 372.773 207.968 372.94 207.879 373.157C207.786 373.373 207.742 373.566 207.692 373.564C207.647 373.565 207.613 373.34 207.718 373.09C207.823 372.84 208.007 372.706 208.039 372.739Z" fill="#533B33"/>
<path d="M209.06 371.395C209.095 371.428 209.006 371.579 208.863 371.733C208.719 371.887 208.574 371.986 208.539 371.953C208.504 371.921 208.592 371.769 208.736 371.615C208.88 371.461 209.025 371.362 209.06 371.395Z" fill="#533B33"/>
<path d="M210.556 370.752C210.547 370.801 210.357 370.805 210.149 370.885C209.939 370.96 209.792 371.08 209.754 371.049C209.714 371.023 209.829 370.817 210.088 370.722C210.348 370.626 210.57 370.708 210.556 370.752Z" fill="#533B33"/>
<path d="M211.626 370.439C211.645 370.484 211.565 370.559 211.446 370.608C211.329 370.658 211.219 370.662 211.2 370.618C211.181 370.574 211.262 370.498 211.379 370.449C211.497 370.399 211.607 370.395 211.626 370.439Z" fill="#533B33"/>
<path d="M163.192 330.1L166.51 323.213L179.449 329.346L174.701 339.472L173.875 339.143C170.21 337.649 155.348 331.288 153.304 329.433C151.025 327.365 163.192 330.1 163.192 330.1Z" fill="#956B69"/>
<g opacity="0.5">
<path d="M170.059 337.148C170.756 336.155 171.833 335.435 173.017 335.172C174.202 334.909 175.436 335.059 176.488 335.665L174.777 339.283L170.059 337.148Z" fill="white"/>
</g>
<g opacity="0.4">
<path d="M157.156 328.955C157.156 328.955 152.776 328.24 152.957 329.103C153.137 329.965 167.914 336.959 174.702 339.474L174.819 339.175L157.513 331.164C157.513 331.164 157.895 329.344 157.156 328.955Z" fill="white"/>
</g>
<path d="M175.025 339.262C175.022 339.268 174.941 339.239 174.791 339.181C174.594 339.102 174.378 339.016 174.134 338.918C173.482 338.643 172.68 338.305 171.734 337.906C169.713 337.037 166.937 335.799 163.903 334.366C160.867 332.932 158.148 331.574 156.193 330.565C155.284 330.087 154.513 329.683 153.887 329.354C153.657 329.228 153.453 329.116 153.266 329.014C153.125 328.934 153.051 328.89 153.055 328.885C153.057 328.879 153.136 328.913 153.282 328.982C153.473 329.076 153.682 329.178 153.918 329.293C154.552 329.609 155.33 329.997 156.249 330.454C158.217 331.435 160.943 332.775 163.977 334.208C167.01 335.64 169.777 336.895 171.784 337.792C172.721 338.211 173.515 338.565 174.161 338.854C174.4 338.963 174.613 339.06 174.805 339.148C174.951 339.218 175.026 339.257 175.025 339.262Z" fill="#533B33"/>
<path d="M157.421 331.367C157.37 331.35 157.599 330.771 157.513 330.035C157.439 329.299 157.091 328.783 157.137 328.755C157.165 328.721 157.604 329.227 157.685 330.017C157.776 330.805 157.456 331.394 157.421 331.367Z" fill="#533B33"/>
<path d="M162.155 331.236C162.108 331.242 162.03 330.934 161.982 330.547C161.933 330.16 161.933 329.842 161.981 329.837C162.029 329.831 162.106 330.139 162.154 330.526C162.202 330.912 162.203 331.231 162.155 331.236Z" fill="#533B33"/>
<path d="M163.466 331.178C163.422 331.197 163.282 330.964 163.154 330.658C163.026 330.352 162.958 330.089 163.002 330.07C163.046 330.052 163.185 330.284 163.314 330.59C163.442 330.896 163.51 331.159 163.466 331.178Z" fill="#533B33"/>
<path d="M164.708 330.27C164.687 330.313 164.367 330.209 163.992 330.036C163.616 329.864 163.328 329.689 163.349 329.645C163.369 329.602 163.69 329.706 164.064 329.879C164.439 330.052 164.727 330.227 164.708 330.27Z" fill="#533B33"/>
<path d="M165.343 329.516C165.338 329.562 164.939 329.554 164.485 329.378C164.03 329.205 163.728 328.942 163.756 328.907C163.784 328.865 164.114 329.053 164.547 329.217C164.978 329.384 165.349 329.467 165.343 329.516Z" fill="#533B33"/>
<path d="M162.25 329.899C162.243 329.917 161.905 329.805 161.421 329.501C161.179 329.349 160.905 329.145 160.628 328.886C160.493 328.752 160.344 328.629 160.22 328.437C160.164 328.344 160.108 328.223 160.136 328.081C160.161 327.94 160.294 327.832 160.419 327.808C161.41 327.773 161.994 328.596 162.095 329.147C162.158 329.434 162.136 329.673 162.103 329.831C162.069 329.989 162.029 330.069 162.018 330.065C161.984 330.062 162.117 329.712 161.975 329.176C161.904 328.913 161.75 328.617 161.483 328.378C161.23 328.152 160.823 327.931 160.459 327.976C160.281 328.012 160.259 328.191 160.364 328.348C160.459 328.501 160.611 328.639 160.737 328.769C161.001 329.027 161.261 329.236 161.489 329.397C161.945 329.723 162.262 329.874 162.25 329.899Z" fill="#533B33"/>
<path d="M162.015 329.839C161.999 329.843 161.977 329.572 162.193 329.216C162.3 329.042 162.471 328.857 162.707 328.716C162.942 328.602 163.251 328.437 163.601 328.62C163.782 328.736 163.772 329 163.676 329.125C163.591 329.264 163.466 329.358 163.358 329.429C163.137 329.579 162.917 329.681 162.728 329.746C162.346 329.877 162.095 329.877 162.093 329.858C162.088 329.831 162.329 329.787 162.683 329.633C162.86 329.555 163.062 329.446 163.268 329.299C163.465 329.177 163.693 328.898 163.502 328.761C163.303 328.643 162.993 328.749 162.787 328.855C162.571 328.973 162.407 329.133 162.296 329.284C162.071 329.593 162.046 329.846 162.015 329.839Z" fill="#533B33"/>
<path d="M176.437 335.596C176.42 335.624 176.082 335.385 175.465 335.178C174.856 334.968 173.937 334.824 172.972 335.05C172.007 335.278 171.249 335.816 170.796 336.275C170.336 336.737 170.141 337.101 170.113 337.083C170.103 337.078 170.142 336.983 170.236 336.822C170.329 336.66 170.482 336.438 170.708 336.19C171.149 335.696 171.926 335.118 172.932 334.881C173.939 334.646 174.891 334.817 175.507 335.062C175.818 335.184 176.055 335.315 176.21 335.418C176.364 335.52 176.443 335.588 176.437 335.596Z" fill="#533B33"/>
<path d="M177.644 329.576C177.687 329.595 177.174 330.81 176.498 332.287C175.821 333.765 175.237 334.947 175.194 334.926C175.151 334.907 175.663 333.693 176.34 332.215C177.016 330.738 177.6 329.555 177.644 329.576Z" fill="#533B33"/>
<path d="M169.027 335.115C169.013 335.158 168.104 334.897 167.049 334.409C165.991 333.923 165.203 333.4 165.227 333.362C165.253 333.318 166.074 333.77 167.121 334.251C168.167 334.736 169.043 335.067 169.027 335.115Z" fill="#533B33"/>
<path d="M171.565 336.312C171.581 336.359 171.411 336.458 171.233 336.611C171.052 336.762 170.926 336.914 170.882 336.89C170.841 336.87 170.912 336.654 171.12 336.479C171.327 336.303 171.551 336.268 171.565 336.312Z" fill="#533B33"/>
<path d="M173.084 335.575C173.1 335.62 172.953 335.715 172.755 335.787C172.557 335.86 172.383 335.882 172.366 335.837C172.35 335.792 172.497 335.696 172.695 335.624C172.893 335.552 173.067 335.53 173.084 335.575Z" fill="#533B33"/>
<path d="M174.71 335.679C174.681 335.719 174.51 335.635 174.288 335.612C174.067 335.584 173.881 335.626 173.861 335.58C173.838 335.54 174.034 335.407 174.308 335.44C174.581 335.47 174.742 335.645 174.71 335.679Z" fill="#533B33"/>
<path d="M175.804 335.883C175.8 335.93 175.694 335.962 175.567 335.952C175.44 335.943 175.34 335.897 175.344 335.849C175.347 335.802 175.453 335.77 175.58 335.78C175.707 335.789 175.807 335.835 175.804 335.883Z" fill="#533B33"/>
<path d="M257.589 230.064L254.545 214.798C252.302 202.303 234.786 201.442 234.786 201.442L221.039 201.22C221.039 201.22 210.848 199.849 204.558 206.941C198.048 214.28 190.053 222.953 190.053 222.953L196.161 238.315L210.623 226.381C210.623 226.381 208.683 229.532 208.683 233.323C208.683 237.392 212.93 239.27 212.93 239.27L214.231 251.658L209.915 271.658L254.805 269.859C253.929 262.607 251.614 256.397 248.187 250.995L249.021 230.064H257.589V230.064Z" fill="#956B69"/>
<path d="M238.32 212.951C238.35 212.947 238.432 213.296 238.555 213.928C238.697 214.652 238.872 215.547 239.08 216.605C239.537 218.967 240.133 222.044 240.791 225.446C241.446 228.903 242.012 232.038 242.374 234.317C242.555 235.456 242.685 236.381 242.761 237.022C242.831 237.665 242.856 238.021 242.825 238.025C242.796 238.03 242.713 237.681 242.59 237.05C242.448 236.325 242.273 235.43 242.065 234.372C241.608 232.011 241.012 228.934 240.354 225.53C239.699 222.074 239.133 218.939 238.771 216.661C238.59 215.522 238.46 214.596 238.384 213.955C238.314 213.313 238.289 212.956 238.32 212.951Z" fill="#533B33"/>
<path d="M257.813 229.264C257.814 229.386 254.101 229.498 249.521 229.515C244.939 229.531 241.227 229.445 241.227 229.322C241.226 229.2 244.939 229.088 249.52 229.072C254.1 229.056 257.813 229.141 257.813 229.264Z" fill="#533B33"/>
<path d="M259.526 243.095C258.639 235.763 257.459 229.511 257.459 229.511H241.566C241.566 229.511 243.539 238.814 243.098 240.972C242.714 242.851 211.914 244.096 203.888 244.222C203.411 243.863 202.716 244.466 202.098 243.928C201.551 243.452 201.093 242.879 200.733 242.244C200.296 241.473 199.756 240.424 199.634 239.757C199.484 238.931 198.433 238.721 198.111 239.408C197.79 240.096 198.152 242.383 199.677 244.594C201.202 246.804 197.204 245.655 195.74 245.264C194.275 244.872 189.69 243.879 189.217 244.245C188.523 244.782 188.958 245.645 190.429 246.001C191.918 246.362 196.239 247.744 196.001 248.528C195.767 249.3 188.34 247.201 188.34 247.201C188.34 247.201 186.822 246.489 186.519 247.385C185.971 249 194.026 250.634 194.796 250.771C195.332 250.866 195.103 251.726 194.534 251.593C193.947 251.456 187.173 249.323 186.599 250.963C186.159 252.22 193.213 252.37 194.38 253.614C195.547 254.856 189.041 252.942 188.669 254.161C188.53 254.615 191.236 254.826 195.126 255.372C198.765 255.884 205.531 255.838 207.151 255.801C216.174 256.295 248.065 256.954 254.872 256.473C262.81 255.91 259.831 245.613 259.526 243.095Z" fill="#FFBE9D"/>
<path d="M209.019 230.497C208.962 230.476 209.184 229.695 209.558 228.434C209.748 227.804 209.978 227.055 210.266 226.23C210.411 225.818 210.57 225.387 210.753 224.945C210.853 224.706 210.979 224.502 211.042 224.304C211.105 224.104 211.129 223.876 211.123 223.645C211.11 223.18 210.992 222.703 210.91 222.236C210.824 221.775 210.742 221.328 210.661 220.895C210.519 220.079 210.386 219.319 210.264 218.619C210.051 217.321 209.949 216.513 210.009 216.501C210.068 216.489 210.279 217.277 210.571 218.559C210.721 219.252 210.885 220.007 211.06 220.816C211.149 221.248 211.241 221.694 211.335 222.153C211.422 222.615 211.548 223.094 211.565 223.634C211.572 223.903 211.546 224.176 211.459 224.442C211.368 224.709 211.234 224.916 211.151 225.113C210.968 225.543 210.802 225.966 210.649 226.369C210.364 227.145 210.099 227.868 209.855 228.533C209.405 229.769 209.076 230.518 209.019 230.497Z" fill="#533B33"/>
<path d="M227.542 172.519C228.773 174.097 230.075 175.908 229.83 177.895C229.617 179.631 228.23 181.173 228.463 182.906C228.732 184.905 231.051 186.208 231.166 188.221C231.262 189.891 229.825 191.18 228.807 192.509C227.345 194.419 226.614 196.906 226.953 199.288C227.291 201.669 228.733 203.9 230.838 205.065C232.943 206.23 235.671 206.249 237.725 204.997C239.627 203.837 240.803 201.771 241.531 199.665C242.478 196.929 242.739 193.698 241.11 191.304C240.45 190.335 239.487 189.498 239.274 188.346C239.002 186.882 240.041 185.501 240.205 184.022C240.425 182.041 239.058 180.231 237.539 178.941C236.021 177.651 234.243 176.599 233.116 174.956" fill="#533B33"/>
<g opacity="0.3">
<path d="M238.842 217.09C239.399 225.604 239.731 233.449 239.895 241.98C241.168 241.836 242.322 241.579 243.098 240.972C243.539 237.335 240.782 226.263 238.842 217.09Z" fill="#533B33"/>
</g>
<path d="M218.127 213.176C218.009 213.161 218.025 212.28 218.322 211.244C218.616 210.207 219.068 209.449 219.175 209.499C219.289 209.55 219.031 210.363 218.748 211.365C218.46 212.366 218.252 213.193 218.127 213.176Z" fill="#FFEDD6"/>
<path d="M209.087 213.15C209.02 213.25 208.416 212.954 207.824 212.391C207.229 211.83 206.902 211.244 206.997 211.171C207.095 211.095 207.561 211.536 208.128 212.07C208.693 212.606 209.157 213.047 209.087 213.15Z" fill="#FFEDD6"/>
<path d="M200.471 220.198C200.436 220.201 200.395 220.121 200.35 219.967L200.544 219.952C200.638 220.317 200.708 221.132 200.544 222.053C200.326 223.352 199.758 224.274 199.657 224.219C199.541 224.165 199.904 223.207 200.108 221.978C200.263 221.102 200.296 220.33 200.35 219.962L200.544 219.947C200.53 220.107 200.506 220.194 200.471 220.198Z" fill="#FFEDD6"/>
<path d="M200.091 229.022C200.047 229.135 199.212 228.917 198.228 228.534C197.243 228.151 196.481 227.748 196.525 227.634C196.569 227.52 197.404 227.739 198.388 228.122C199.373 228.505 200.135 228.908 200.091 229.022Z" fill="#FFEDD6"/>
<path d="M207.365 224.136C207.246 224.118 207.269 223.368 207.543 222.495C207.813 221.621 208.22 220.991 208.328 221.042C208.441 221.095 208.226 221.785 207.965 222.627C207.702 223.467 207.487 224.157 207.365 224.136Z" fill="#FFEDD6"/>
<path d="M215.042 204.788C215.048 204.91 214.406 205.04 213.609 205.078C212.811 205.116 212.16 205.048 212.154 204.926C212.148 204.803 212.79 204.674 213.587 204.636C214.385 204.598 215.036 204.666 215.042 204.788Z" fill="#FFEDD6"/>
<path d="M216.609 221.387C216.534 221.476 215.84 220.962 215.382 220.028C214.917 219.097 214.93 218.233 215.047 218.228C215.174 218.212 215.352 218.981 215.779 219.832C216.195 220.687 216.699 221.296 216.609 221.387Z" fill="#FFEDD6"/>
<path d="M231.707 217.831C231.793 217.916 231.251 218.595 230.445 219.287C229.638 219.981 228.886 220.413 228.814 220.315C228.741 220.215 229.364 219.632 230.157 218.952C230.949 218.272 231.619 217.744 231.707 217.831Z" fill="#FFEDD6"/>
<path d="M224.238 215.484C224.311 215.583 223.839 216.056 223.183 216.542C222.528 217.028 221.938 217.342 221.865 217.243C221.792 217.145 222.264 216.672 222.92 216.186C223.575 215.7 224.166 215.386 224.238 215.484Z" fill="#FFEDD6"/>
<path d="M227.9 209.378C227.847 209.483 226.967 209.129 226.092 208.374C225.213 207.624 224.729 206.808 224.824 206.74C224.925 206.662 225.542 207.324 226.38 208.038C227.214 208.757 227.961 209.267 227.9 209.378Z" fill="#FFEDD6"/>
<path d="M236.495 206.996C236.569 207.094 236.085 207.584 235.415 208.092C234.745 208.6 234.142 208.933 234.068 208.835C233.994 208.738 234.478 208.247 235.148 207.739C235.817 207.232 236.421 206.899 236.495 206.996Z" fill="#FFEDD6"/>
<path d="M243.672 210.401C243.555 210.357 243.751 209.565 243.944 208.588C244.142 207.613 244.266 206.806 244.391 206.81C244.51 206.813 244.583 207.658 244.378 208.675C244.176 209.692 243.783 210.445 243.672 210.401Z" fill="#FFEDD6"/>
<path d="M244.939 218.584C244.856 218.674 244.085 218.102 243.215 217.306C242.345 216.509 241.708 215.791 241.79 215.701C241.873 215.611 242.645 216.183 243.514 216.98C244.384 217.775 245.021 218.494 244.939 218.584Z" fill="#FFEDD6"/>
<path d="M250.742 215.144C250.63 215.096 250.851 214.323 251.236 213.42C251.621 212.515 252.025 211.821 252.137 211.869C252.249 211.917 252.028 212.689 251.643 213.593C251.258 214.497 250.854 215.191 250.742 215.144Z" fill="#FFEDD6"/>
<path d="M251.046 224.975C250.939 224.916 251.31 224.032 251.874 223.001C252.44 221.969 252.985 221.181 253.092 221.24C253.199 221.298 252.827 222.182 252.263 223.213C251.698 224.245 251.153 225.033 251.046 224.975Z" fill="#FFEDD6"/>
<path d="M245.318 226.483C245.221 226.556 244.636 225.944 244.013 225.116C243.389 224.287 242.963 223.556 243.061 223.483C243.159 223.41 243.743 224.021 244.366 224.85C244.989 225.678 245.416 226.409 245.318 226.483Z" fill="#FFEDD6"/>
<path d="M234.51 230.687C234.403 230.636 234.842 229.494 235.675 228.245C236.505 226.993 237.388 226.146 237.476 226.226C237.571 226.309 236.854 227.267 236.044 228.49C235.23 229.711 234.624 230.742 234.51 230.687Z" fill="#FFEDD6"/>
<path d="M226.737 229.905C226.628 229.958 226.091 229.079 225.538 227.942C224.986 226.804 224.627 225.839 224.737 225.786C224.846 225.732 225.383 226.611 225.936 227.749C226.489 228.886 226.848 229.852 226.737 229.905Z" fill="#FFEDD6"/>
<path d="M216.954 227.627C217.035 227.718 216.238 228.548 215.174 229.478C214.109 230.409 213.182 231.089 213.101 230.996C213.021 230.904 213.818 230.075 214.882 229.145C215.945 228.214 216.874 227.535 216.954 227.627Z" fill="#FFEDD6"/>
<path d="M220.672 238.258C220.571 238.332 219.868 237.54 218.954 236.622C218.043 235.7 217.256 234.992 217.331 234.892C217.4 234.795 218.33 235.362 219.268 236.311C220.208 237.255 220.768 238.19 220.672 238.258Z" fill="#FFEDD6"/>
<path d="M227.52 238.578C227.407 238.544 227.637 237.521 228.28 236.414C228.919 235.304 229.69 234.595 229.776 234.675C229.871 234.759 229.276 235.57 228.664 236.635C228.046 237.697 227.64 238.619 227.52 238.578Z" fill="#FFEDD6"/>
<path d="M237.121 239.662C237.037 239.751 236.094 239.092 235.016 238.191C233.936 237.289 233.121 236.478 233.194 236.381C233.267 236.282 234.209 236.941 235.299 237.852C236.389 238.762 237.204 239.572 237.121 239.662Z" fill="#FFEDD6"/>
<path d="M236.279 214.386C236.227 214.492 235.374 214.173 234.481 213.512C233.584 212.854 233.028 212.134 233.114 212.053C233.204 211.965 233.881 212.522 234.744 213.155C235.604 213.793 236.337 214.274 236.279 214.386Z" fill="#FFEDD6"/>
<path d="M222.39 257.947C222.438 258.065 221.747 258.437 220.982 259.003C220.213 259.564 219.652 260.112 219.554 260.031C219.459 259.961 219.899 259.247 220.721 258.646C221.538 258.042 222.351 257.836 222.39 257.947Z" fill="#FFEDD6"/>
<path d="M232.669 262.152C232.554 262.194 232.148 261.378 231.761 260.328C231.375 259.278 231.154 258.393 231.268 258.351C231.383 258.308 231.789 259.125 232.176 260.175C232.563 261.225 232.784 262.109 232.669 262.152Z" fill="#FFEDD6"/>
<path d="M243.044 258.478C243.132 258.562 242.604 259.259 241.862 260.034C241.121 260.808 240.45 261.367 240.361 261.283C240.273 261.199 240.802 260.503 241.543 259.728C242.283 258.953 242.955 258.394 243.044 258.478Z" fill="#FFEDD6"/>
<path d="M250.715 264.07C250.629 264.166 249.94 263.622 248.921 263.424C247.906 263.205 247.057 263.435 247.017 263.312C246.955 263.212 247.851 262.748 249.009 262.99C250.168 263.222 250.81 264.002 250.715 264.07Z" fill="#FFEDD6"/>
<path d="M254.938 267.851C254.938 267.851 196.237 255.554 190.554 258.247C184.87 260.939 158.662 325.722 158.662 325.722L179.763 334.8L202.474 279.754C202.474 279.754 243.571 294.765 250.75 293.274C257.929 291.782 254.938 267.851 254.938 267.851Z" fill="#E89636"/>
<path d="M228.702 271.305C227.804 271.604 193.849 285.562 191.456 290.049C189.062 294.536 194.942 369.041 194.942 369.041H214.255L213.059 302.824L250.75 293.274L228.702 271.305Z" fill="#E89636"/>
<path d="M250.946 293.425C250.944 293.44 250.752 293.417 250.39 293.357C249.983 293.285 249.459 293.192 248.81 293.077C247.439 292.824 245.461 292.435 243.024 291.916C238.151 290.887 231.44 289.332 224.128 287.235C220.474 286.177 217.021 285.074 213.903 284.002C210.798 282.897 208.014 281.863 205.721 280.882C204.565 280.414 203.538 279.951 202.636 279.541C201.731 279.14 200.958 278.779 200.337 278.462C199.748 278.165 199.273 277.925 198.904 277.739C198.579 277.57 198.411 277.474 198.418 277.46C198.425 277.447 198.606 277.516 198.943 277.658C199.321 277.825 199.807 278.039 200.411 278.305C201.042 278.598 201.823 278.936 202.736 279.314C203.645 279.702 204.679 280.144 205.84 280.592C208.142 281.534 210.932 282.535 214.037 283.616C217.155 284.664 220.604 285.753 224.251 286.81C231.549 288.902 238.24 290.504 243.093 291.61C245.483 292.149 247.434 292.589 248.845 292.907C249.488 293.056 250.006 293.176 250.408 293.269C250.764 293.357 250.95 293.41 250.946 293.425Z" fill="#533B33"/>
<path d="M191.463 307.165C191.432 307.167 191.37 306.769 191.284 306.049C191.198 305.241 191.09 304.217 190.961 302.994C190.838 301.673 190.696 300.142 190.54 298.459C190.402 296.76 190.16 294.844 190.531 292.84C190.89 290.82 192.067 289.146 193.35 287.985C194.639 286.801 196.033 286.048 197.213 285.501C198.4 284.956 199.394 284.608 200.08 284.371C200.768 284.138 201.154 284.027 201.165 284.055C201.197 284.134 199.671 284.665 197.348 285.783C196.201 286.359 194.856 287.125 193.628 288.284C192.402 289.427 191.306 291.01 190.966 292.924C190.609 294.832 190.828 296.72 190.946 298.425C191.068 300.111 191.178 301.645 191.273 302.969C191.346 304.196 191.408 305.224 191.455 306.036C191.489 306.76 191.493 307.162 191.463 307.165Z" fill="#533B33"/>
<path d="M208.404 300.764C208.453 300.652 209.517 301.012 210.779 301.567C212.042 302.123 213.026 302.664 212.976 302.776C212.927 302.888 211.864 302.528 210.601 301.973C209.338 301.417 208.355 300.876 208.404 300.764Z" fill="#533B33"/>
<path d="M210.108 298.727C210.227 298.676 210.763 299.747 211.646 300.908C212.521 302.075 213.405 302.882 213.323 302.983C213.257 303.077 212.209 302.394 211.292 301.175C210.37 299.961 209.999 298.765 210.108 298.727Z" fill="#533B33"/>
<path d="M217.522 301.785C217.537 301.795 217.465 301.945 217.225 302.088C216.989 302.24 216.585 302.342 216.105 302.353C215.629 302.376 215.061 302.303 214.501 302.394C213.924 302.468 213.538 302.93 213.541 303.623C213.52 306.453 213.426 308.783 213.3 308.778C213.182 308.772 213.076 306.476 213.099 303.598C213.119 303.23 213.195 302.812 213.463 302.501C213.717 302.184 214.106 302.036 214.434 301.991C215.104 301.911 215.651 302.027 216.108 302.04C217.038 302.134 217.478 301.737 217.522 301.785Z" fill="#533B33"/>
<path opacity="0.3" d="M212.891 257.861L252.904 261.076L251.195 256.601L213.281 256.051L212.891 257.861Z" fill="#533B33"/>
<path d="M321.183 249.08H85.3125V255.377H97.9291L91.4257 375.006L95.0161 375.202L101.531 255.377H308.318L313.866 375.104H317.466L311.918 255.377H321.183V249.08Z" fill="#533B33"/>
<path d="M154.107 211.884L167.187 250.104H226.412L225.975 248.136L202.027 247.396L190.994 211.863L154.107 211.884Z" fill="#533B33"/>
<path d="M180.352 229.836C180.743 231.401 180.072 232.936 178.853 233.262C177.635 233.589 176.331 232.583 175.94 231.016C175.549 229.451 176.219 227.916 177.438 227.591C178.656 227.265 179.961 228.269 180.352 229.836Z" fill="white"/>
</svg>
